<svg
  xmlns="http://www.w3.org/2000/svg"
  viewBox="-16 -16 932 492"
  width="100%"
  preserveAspectRatio="xMidYMid meet"
  style="color: currentColor; --accent-stroke: var(--diagram-accent, #863bff); --accent-fill: var(--diagram-accent-fill, rgba(134, 59, 255, 0.12));"
  role="img">
  <path d="M41.35,201.67 C66.79,198.05,93.88,195.34,173.67,198.93 M43.45,198.99 C77.34,198.98,113.34,199.52,174.65,197.61 M174.63,198.67 C180.99,198.09,191.46,200.24,190.00,211.66 M171.65,197.87 C185.90,199.41,187.75,202.16,190.72,211.02 M186.51,210.21 C190.85,221.94,191.09,226.84,188.94,247.64 M187.05,212.51 C190.00,224.31,188.66,233.71,189.67,244.78 M188.63,245.50 C186.32,255.41,186.12,258.74,177.05,258.04 M185.78,243.25 C188.85,257.89,182.63,257.82,174.31,261.33 M171.99,257.28 C130.53,258.52,85.19,263.91,46.65,259.35 M174.09,260.51 C137.61,258.17,103.49,259.83,43.52,260.51 M43.63,259.50 C36.29,258.48,31.59,254.39,30.74,244.71 M41.41,259.48 C35.36,257.12,31.42,256.69,30.76,245.72 M32.29,244.52 C30.16,236.50,26.61,228.41,30.66,212.84 M28.21,246.68 C30.72,237.37,28.40,231.15,31.15,211.83 M29.63,212.67 C32.35,206.00,32.33,195.51,42.81,198.33 M26.58,215.74 C26.82,205.15,35.28,196.74,42.07,195.13 M43.63,198.67 C43.63,198.67,43.63,198.67,43.63,198.67 M43.63,198.67 C43.63,198.67,43.63,198.67,43.63,198.67" fill="none" stroke="currentColor" stroke-width="1.6" stroke-linecap="round" stroke-linejoin="round" />
  <text x="110" y="230.0" font-family="var(--diagram-font, 'Caveat', 'Comic Sans MS', cursive)" font-size="20" font-weight="600" fill="currentColor" text-anchor="middle" dominant-baseline="middle">filename.ext</text>
  <path d="M286.18,201.03 C303.88,199.44,324.74,198.50,386.60,197.36 M284.28,198.82 C311.21,196.55,341.15,199.38,386.32,198.22 M385.64,199.68 C395.93,198.36,396.47,206.21,401.56,214.40 M387.83,198.55 C391.62,202.94,396.23,204.68,402.39,210.91 M397.96,212.07 C398.87,225.31,400.14,236.87,397.58,248.60 M399.50,213.78 C398.12,223.63,400.24,231.22,398.70,247.56 M399.64,246.50 C400.24,254.05,396.47,262.92,388.23,261.78 M396.59,247.58 C403.30,253.88,396.80,257.45,388.50,261.32 M387.14,259.55 C347.65,262.46,311.82,260.18,286.91,261.06 M384.20,261.49 C353.39,260.45,322.65,260.82,282.38,261.69 M283.89,260.50 C277.34,263.06,271.82,253.00,269.28,244.96 M283.36,260.58 C276.25,256.97,273.04,257.39,273.07,243.28 M271.09,247.24 C267.39,235.95,271.98,221.48,271.47,214.58 M269.51,245.40 C268.61,235.29,270.96,224.76,270.79,214.10 M269.89,213.68 C266.82,201.42,274.08,197.56,285.62,202.12 M267.47,215.71 C266.87,204.44,273.09,201.61,287.39,200.18 M283.89,199.68 C283.89,199.68,283.89,199.68,283.89,199.68 M283.89,199.68 C283.89,199.68,283.89,199.68,283.89,199.68" fill="none" stroke="currentColor" stroke-width="1.6" stroke-linecap="round" stroke-linejoin="round" />
  <text x="335" y="230.0" font-family="var(--diagram-font, 'Caveat', 'Comic Sans MS', cursive)" font-size="22" font-weight="600" fill="currentColor" text-anchor="middle" dominant-baseline="middle">Parser</text>
  <path d="M518.06,72.10 C569.81,75.82,619.70,74.32,689.15,65.51 C695.15,68.47,700.62,71.17,701.20,84.87 C701.70,92.77,697.59,96.44,697.91,119.31 C703.81,122.77,690.90,131.84,689.71,131.14 C630.98,125.47,563.63,127.62,514.47,127.59 C509.25,131.30,504.73,122.99,495.38,112.15 C502.48,110.39,500.88,105.81,498.55,80.55 C496.11,71.48,508.77,71.36,512.72,70.04 C514.03,70.24,514.03,70.24,514.03,70.24" fill="var(--accent-fill)" stroke="none" />
  <path d="M514.49,69.94 C550.77,65.39,585.30,66.22,688.93,71.76 M514.98,71.41 C567.22,70.79,620.18,69.51,687.38,71.59 M686.03,70.24 C693.85,68.18,697.26,75.33,702.51,86.68 M686.99,68.78 C694.09,68.66,701.46,76.75,703.44,87.72 M698.80,83.49 C702.68,91.44,698.59,102.86,702.00,118.31 M701.33,84.60 C700.08,92.31,699.27,97.90,700.31,115.89 M700.03,116.24 C697.15,127.84,696.21,129.44,688.80,127.86 M703.18,114.26 C699.78,125.98,692.99,133.20,684.73,130.06 M685.28,130.56 C617.92,134.41,555.32,130.86,517.04,131.52 M686.90,131.21 C626.56,131.91,567.18,130.99,514.33,131.62 M514.03,130.24 C501.86,129.98,501.91,126.75,497.70,113.96 M515.18,130.43 C507.02,132.93,497.19,126.84,497.91,116.95 M499.76,118.71 C502.14,104.58,502.08,96.98,502.16,85.87 M500.69,116.05 C499.58,108.70,500.20,100.62,500.30,82.73 M500.03,84.24 C497.56,72.80,505.70,69.16,511.92,69.06 M498.23,85.24 C496.80,73.29,508.12,68.67,515.22,67.42 M514.03,70.24 C514.03,70.24,514.03,70.24,514.03,70.24 M514.03,70.24 C514.03,70.24,514.03,70.24,514.03,70.24" fill="none" stroke="var(--accent-stroke)" stroke-width="1.6" stroke-linecap="round" stroke-linejoin="round" />
  <text x="600" y="100.0" font-family="var(--diagram-font, 'Caveat', 'Comic Sans MS', cursive)" font-size="21" font-weight="600" fill="var(--accent-stroke)" text-anchor="middle" dominant-baseline="middle">Series page</text>
  <path d="M512.88,199.25 C547.45,204.05,581.77,200.26,685.53,200.16 M515.76,201.21 C570.50,203.35,626.83,201.16,685.93,202.17 M687.10,201.21 C698.85,198.41,698.73,204.86,704.14,212.98 M686.82,199.41 C697.24,202.15,700.01,209.23,697.81,217.57 M700.32,215.31 C700.77,224.46,704.12,229.43,700.71,248.27 M700.65,215.82 C701.49,227.66,700.95,240.70,702.60,247.67 M701.10,246.24 C701.14,255.48,696.63,262.61,690.05,260.60 M704.06,247.60 C704.30,258.33,697.22,261.84,688.99,259.05 M684.09,261.83 C654.40,260.18,617.79,261.76,517.26,262.24 M687.07,261.19 C621.67,260.18,558.14,261.17,513.15,261.81 M514.25,260.24 C502.87,257.16,502.09,254.36,502.60,243.21 M517.09,260.53 C507.87,261.78,498.77,256.54,500.18,243.52 M498.52,244.03 C499.33,239.85,501.01,226.30,502.93,217.57 M498.75,246.97 C500.61,236.04,499.51,224.07,499.90,214.97 M500.25,215.21 C498.38,204.58,507.41,201.16,514.69,202.80 M499.08,215.17 C496.81,202.53,505.88,203.50,513.14,202.44 M514.25,201.21 C514.25,201.21,514.25,201.21,514.25,201.21 M514.25,201.21 C514.25,201.21,514.25,201.21,514.25,201.21" fill="none" stroke="currentColor" stroke-width="1.6" stroke-linecap="round" stroke-linejoin="round" />
  <text x="600" y="230.0" font-family="var(--diagram-font, 'Caveat', 'Comic Sans MS', cursive)" font-size="19" font-weight="600" fill="currentColor" text-anchor="middle" dominant-baseline="middle">No-series bucket</text>
  <path d="M514.50,333.38 C557.01,325.84,607.13,325.99,686.71,331.05 C698.33,333.31,695.98,337.35,700.39,338.80 C697.76,358.14,698.34,368.33,698.35,372.82 C696.75,388.43,694.98,389.03,689.91,388.87 C622.32,389.85,567.11,384.58,517.10,387.15 C504.57,387.58,500.05,386.62,498.87,375.98 C503.62,370.14,503.67,355.20,504.84,339.46 C502.84,337.97,509.58,328.23,511.76,325.67 C514.30,329.38,514.30,329.38,514.30,329.38" fill="var(--accent-fill)" stroke="none" />
  <path d="M511.11,332.15 C550.02,333.51,583.79,331.48,686.66,332.15 M513.18,328.19 C573.05,333.08,632.22,333.18,685.80,329.93 M686.30,329.38 C695.58,332.23,698.34,331.58,697.51,342.86 M684.80,327.24 C698.53,332.83,696.69,331.53,697.68,344.61 M699.97,344.32 C703.38,355.09,701.37,366.81,697.55,377.37 M701.30,344.23 C699.04,354.55,701.97,366.20,699.83,375.38 M700.30,375.38 C703.26,382.26,695.18,388.52,689.44,392.48 M703.07,373.66 C699.60,382.46,692.23,389.61,684.03,387.17 M687.44,392.23 C648.56,385.07,610.27,385.38,517.31,392.09 M685.39,390.30 C649.97,390.78,614.12,390.48,515.01,387.93 M514.30,389.38 C503.71,389.87,502.11,387.51,500.94,377.99 M512.42,389.76 C508.55,389.77,500.19,385.38,502.29,376.57 M497.11,374.89 C502.76,367.27,499.79,359.99,497.13,346.46 M499.84,373.82 C501.49,368.25,501.86,358.13,499.33,344.39 M500.30,343.38 C499.04,333.55,502.55,330.36,517.30,327.34 M499.76,342.30 C496.66,336.33,503.48,328.15,510.89,327.28 M514.30,329.38 C514.30,329.38,514.30,329.38,514.30,329.38 M514.30,329.38 C514.30,329.38,514.30,329.38,514.30,329.38" fill="none" stroke="var(--accent-stroke)" stroke-width="1.6" stroke-linecap="round" stroke-linejoin="round" />
  <text x="600" y="360.0" font-family="var(--diagram-font, 'Caveat', 'Comic Sans MS', cursive)" font-size="19" font-weight="600" fill="var(--accent-stroke)" text-anchor="middle" dominant-baseline="middle">Chapter grouping</text>
  <path d="M801.51,61.77 L863.19,98.48 L797.62,135.59 L732.33,100.63" fill="none" stroke="none" />
  <path d="M802.26,61.00 C810.38,67.31,828.32,75.03,866.06,99.96 M800.32,60.72 C825.98,74.40,848.03,88.29,863.94,99.93 M865.88,98.20 C851.64,104.87,831.77,114.72,799.10,136.03 M863.32,100.13 C846.57,109.54,830.94,119.51,798.44,137.60 M798.84,135.41 C773.37,123.03,753.15,109.40,733.60,97.92 M797.46,137.83 C776.56,124.70,754.44,111.97,734.70,99.57 M733.51,98.55 C755.03,83.52,779.57,73.28,799.77,57.61 M734.77,100.26 C752.51,85.38,772.80,75.69,802.27,60.79" fill="none" stroke="currentColor" stroke-width="1.6" stroke-linecap="round" stroke-linejoin="round" />
  <text x="800" y="90.2" font-family="var(--diagram-font, 'Caveat', 'Comic Sans MS', cursive)" font-size="17" font-weight="600" fill="currentColor" text-anchor="middle" dominant-baseline="middle">Arcs</text>
  <text x="800" y="109.8" font-family="var(--diagram-font, 'Caveat', 'Comic Sans MS', cursive)" font-size="17" font-weight="600" fill="currentColor" text-anchor="middle" dominant-baseline="middle">defined?</text>
  <path d="M200.65,229.10 C205.98,228.98,220.36,228.87,229.86,229.21 C239.37,229.54,252.80,231.06,257.67,231.09 M198.42,226.76 C203.61,226.90,218.29,231.18,227.91,231.30 C237.53,231.43,250.76,227.56,256.14,227.53" fill="none" stroke="currentColor" stroke-width="1.6" stroke-linecap="round" stroke-linejoin="round" />
  <path d="M259.89,229.22 L246.23,231.16 L248.69,226.14" fill="currentColor" stroke="none" />
  <path d="M257.28,229.59 C255.07,230.52,254.89,232.42,247.59,233.71 M257.50,230.72 C255.32,230.40,252.17,231.95,248.22,234.37 M247.49,233.79 C248.73,230.54,248.90,229.60,248.52,226.84 M248.16,233.21 C247.86,232.62,247.83,230.28,248.33,226.88 M247.25,226.00 C248.95,227.42,252.00,229.69,257.40,229.54 M247.38,226.73 C250.44,227.91,252.78,227.67,258.42,229.76" fill="none" stroke="currentColor" stroke-width="1.6" stroke-linecap="round" stroke-linejoin="round" />
  
  <path d="M405.37,210.21 C412.85,201.54,434.91,177.72,449.20,160.62 C463.49,143.52,483.69,116.06,491.11,107.61 M408.72,213.72 C417.05,204.36,439.75,174.62,453.15,157.18 C466.55,139.74,482.14,116.57,489.10,109.08" fill="none" stroke="currentColor" stroke-width="1.6" stroke-linecap="round" stroke-linejoin="round" />
  <path d="M490.59,107.56 L489.88,118.75 L480.37,113.07" fill="currentColor" stroke="none" />
  <path d="M490.63,107.93 C492.10,110.21,489.60,114.30,489.27,117.89 M492.11,109.31 C490.67,111.41,490.59,114.43,489.23,119.70 M487.88,119.47 C487.00,118.69,485.77,116.88,483.51,115.58 M488.42,118.86 C486.74,118.48,485.81,116.86,483.33,114.63 M481.77,115.62 C486.70,114.83,487.35,111.00,491.58,110.11 M482.75,115.56 C486.31,112.70,490.76,111.06,492.69,109.86" fill="none" stroke="currentColor" stroke-width="1.6" stroke-linecap="round" stroke-linejoin="round" />
  <text x="433.9" y="145.9" font-family="var(--diagram-font, 'Caveat', 'Comic Sans MS', cursive)" font-size="17" fill="currentColor" text-anchor="middle" dominant-baseline="middle" opacity="0.78">series + index</text>
  <path d="M411.51,230.91 C418.87,230.18,439.64,226.44,452.04,226.27 C464.44,226.11,479.63,228.96,485.91,229.91 M409.73,229.55 C417.13,228.95,437.82,227.57,451.18,228.01 C464.55,228.45,483.27,232.11,489.91,232.20" fill="none" stroke="currentColor" stroke-width="1.6" stroke-linecap="round" stroke-linejoin="round" />
  <path d="M489.05,227.46 L475.62,234.62 L478.02,223.14" fill="currentColor" stroke="none" />
  <path d="M488.73,231.23 C484.50,229.06,483.88,232.70,479.43,233.73 M488.09,229.47 C485.54,231.90,481.30,232.43,477.03,233.31 M476.76,233.43 C477.52,231.04,478.62,228.88,478.07,225.23 M478.29,232.79 C478.25,230.05,478.37,227.76,477.91,225.53 M479.26,225.01 C481.08,226.74,483.17,228.37,487.12,228.85 M477.71,225.85 C481.93,226.73,485.51,228.46,488.32,229.83" fill="none" stroke="currentColor" stroke-width="1.6" stroke-linecap="round" stroke-linejoin="round" />
  <text x="450.5" y="206.1" font-family="var(--diagram-font, 'Caveat', 'Comic Sans MS', cursive)" font-size="17" fill="currentColor" text-anchor="middle" dominant-baseline="middle" opacity="0.78">no series</text>
  <path d="M406.23,247.39 C414.07,256.29,436.83,284.68,451.38,302.15 C465.94,319.62,486.41,344.27,493.56,352.21 M403.54,245.37 C411.34,254.55,435.05,287.59,449.93,304.84 C464.82,322.08,486.31,341.09,492.87,348.83" fill="none" stroke="currentColor" stroke-width="1.6" stroke-linecap="round" stroke-linejoin="round" />
  <path d="M489.75,353.76 L483.95,342.71 L491.08,343.26" fill="currentColor" stroke="none" />
  <path d="M492.08,351.13 C490.38,350.70,489.75,350.22,482.39,344.81 M492.71,351.33 C489.40,349.65,486.69,346.93,482.71,345.54 M484.07,346.01 C484.16,343.93,487.49,343.19,488.04,340.76 M483.22,345.34 C484.01,344.12,485.71,343.75,489.00,341.18 M488.77,341.42 C489.14,345.00,490.74,347.93,491.30,350.99 M488.06,341.47 C489.17,344.77,491.22,348.18,492.58,351.49" fill="none" stroke="currentColor" stroke-width="1.6" stroke-linecap="round" stroke-linejoin="round" />
  <text x="467.8" y="288.1" font-family="var(--diagram-font, 'Caveat', 'Comic Sans MS', cursive)" font-size="17" fill="currentColor" text-anchor="middle" dominant-baseline="middle" opacity="0.78">chapter number</text>
  <path d="M708.14,98.50 C709.74,98.86,714.96,103.52,717.50,103.56 C720.04,103.60,722.77,99.27,723.36,98.73 M711.05,102.33 C712.50,102.00,713.61,101.04,715.46,100.71 C717.32,100.39,721.37,100.09,722.20,100.38" fill="none" stroke="currentColor" stroke-width="1.6" stroke-linecap="round" stroke-linejoin="round" />
  <path d="M723.21,102.11 L712.31,106.17 L711.34,101.50" fill="currentColor" stroke="none" />
  <path d="M721.79,99.47 C722.83,101.53,718.83,101.03,715.17,108.26 M723.69,99.92 C719.86,102.91,717.04,105.69,714.82,106.75 M715.57,107.57 C714.86,103.98,713.39,100.78,711.61,100.82 M714.59,106.88 C714.70,104.62,714.04,102.77,712.58,100.24 M711.88,98.96 C714.26,99.54,719.08,99.05,721.85,101.56 M712.03,99.93 C715.80,100.29,718.95,100.00,723.21,99.90" fill="none" stroke="currentColor" stroke-width="1.6" stroke-linecap="round" stroke-linejoin="round" />
  
</svg>