<svg
  xmlns="http://www.w3.org/2000/svg"
  viewBox="-16 -16 912 352"
  width="100%"
  preserveAspectRatio="xMidYMid meet"
  style="color: currentColor; --accent-stroke: var(--diagram-accent, #863bff); --accent-fill: var(--diagram-accent-fill, rgba(134, 59, 255, 0.12));"
  role="img">
  <path d="M37.50,27.71 C78.32,29.98,122.39,30.23,245.17,30.12 M36.71,30.96 C86.15,28.35,135.81,27.97,245.66,30.08 M246.20,29.68 C257.17,31.12,261.41,34.49,263.16,46.63 M248.66,29.19 C252.66,31.61,258.23,32.51,263.79,42.38 M261.93,43.43 C260.54,54.50,259.18,64.59,263.00,87.38 M261.70,44.86 C260.77,55.25,260.50,67.05,259.23,83.37 M260.20,84.56 C257.11,96.78,257.95,98.29,244.99,99.90 M261.25,86.03 C257.67,94.03,257.20,102.00,248.22,98.50 M244.10,96.77 C188.76,104.26,138.59,103.21,38.25,97.05 M247.40,99.78 C164.86,100.05,85.42,98.84,34.63,98.96 M35.49,98.56 C25.21,96.34,24.25,96.42,18.58,85.93 M38.00,96.49 C29.38,97.00,18.09,94.31,18.33,87.25 M21.40,87.51 C20.09,68.77,20.07,54.34,24.33,42.09 M21.71,83.43 C20.80,76.98,21.00,67.09,22.64,43.18 M21.49,43.68 C18.53,33.64,26.49,31.45,34.78,31.42 M18.75,41.88 C22.86,33.80,24.84,31.61,35.88,26.29 M35.49,29.68 C35.49,29.68,35.49,29.68,35.49,29.68 M35.49,29.68 C35.49,29.68,35.49,29.68,35.49,29.68" fill="none" stroke="currentColor" stroke-width="1.6" stroke-linecap="round" stroke-linejoin="round" />
  <text x="140" y="65.0" font-family="var(--diagram-font, 'Caveat', 'Comic Sans MS', cursive)" font-size="21" font-weight="600" fill="currentColor" text-anchor="middle" dominant-baseline="middle">KOReader + TomeSync</text>
  <path d="M33.10,222.74 C72.38,222.50,116.23,224.30,244.70,218.71 M31.59,220.77 C87.23,220.96,141.04,219.78,244.07,220.58 M244.02,220.53 C252.52,221.23,259.64,223.89,255.15,232.80 M245.25,219.70 C252.56,217.61,260.89,224.86,254.92,232.11 M260.20,235.13 C255.41,248.90,255.08,266.84,258.45,278.59 M257.77,235.97 C258.73,244.12,258.73,253.83,258.27,276.40 M258.02,275.81 C257.85,285.67,255.12,292.71,243.00,287.49 M258.88,274.21 C258.94,287.63,250.82,291.88,241.88,288.73 M245.58,289.14 C186.06,291.17,127.05,289.01,35.45,288.93 M244.43,291.01 C197.68,289.84,152.01,290.31,33.43,290.38 M32.69,289.81 C23.20,291.16,21.42,285.28,20.46,276.43 M30.49,287.84 C19.86,287.10,16.66,285.26,17.59,275.06 M17.14,274.08 C20.60,258.80,15.92,244.73,15.68,233.67 M19.95,275.59 C17.31,264.13,18.99,248.91,19.23,235.29 M18.69,234.53 C16.34,225.30,25.18,223.33,34.54,218.64 M16.59,231.69 C19.86,222.93,26.95,218.95,30.79,221.18 M32.69,220.53 C32.69,220.53,32.69,220.53,32.69,220.53 M32.69,220.53 C32.69,220.53,32.69,220.53,32.69,220.53" fill="none" stroke="currentColor" stroke-width="1.6" stroke-linecap="round" stroke-linejoin="round" />
  <text x="140" y="255.0" font-family="var(--diagram-font, 'Caveat', 'Comic Sans MS', cursive)" font-size="21" font-weight="600" fill="currentColor" text-anchor="middle" dominant-baseline="middle">Web reader in browser</text>
  <path d="M397.18,125.49 C454.09,124.70,510.27,125.85,586.79,124.34 C594.23,124.64,600.95,133.18,601.77,144.53 C598.95,153.17,595.88,168.28,595.52,193.71 C599.59,200.44,590.52,207.71,589.62,201.62 C526.85,206.83,466.20,206.52,389.37,208.66 C380.49,206.62,375.88,201.69,380.93,188.85 C379.51,178.55,380.63,170.63,375.19,138.46 C378.01,130.40,382.63,130.43,394.79,122.35 C393.27,125.92,393.27,125.92,393.27,125.92" fill="var(--accent-fill)" stroke="none" />
  <path d="M391.90,126.77 C431.43,122.17,471.24,125.99,587.96,127.68 M392.57,125.02 C446.10,128.27,498.45,126.02,586.00,125.58 M585.27,125.92 C597.69,125.88,601.28,127.84,596.95,139.91 M585.26,124.76 C595.89,125.52,599.61,131.76,596.82,136.38 M601.89,141.37 C600.01,152.57,600.73,166.68,597.33,194.67 M600.46,138.41 C598.62,159.80,598.88,179.68,600.74,191.10 M599.27,191.92 C602.01,199.43,595.71,205.60,584.42,206.34 M599.93,193.66 C596.27,198.73,595.23,206.64,586.32,203.84 M584.78,206.43 C527.34,202.85,465.18,205.53,396.39,205.65 M584.83,207.27 C536.65,207.39,490.59,206.64,392.71,206.75 M393.27,205.92 C384.56,204.46,381.95,199.00,379.32,191.79 M392.75,204.05 C381.06,209.43,378.59,201.08,380.22,195.10 M376.25,191.92 C377.93,177.00,381.39,160.20,376.81,139.78 M378.36,192.62 C378.63,178.82,378.59,167.35,379.18,138.74 M379.27,139.92 C377.52,131.50,380.84,123.36,391.27,126.81 M377.78,142.44 C380.22,133.96,385.06,128.20,396.41,123.25 M393.27,125.92 C393.27,125.92,393.27,125.92,393.27,125.92 M393.27,125.92 C393.27,125.92,393.27,125.92,393.27,125.92" fill="none" stroke="var(--accent-stroke)" stroke-width="1.6" stroke-linecap="round" stroke-linejoin="round" />
  <text x="490" y="165.0" font-family="var(--diagram-font, 'Caveat', 'Comic Sans MS', cursive)" font-size="23" font-weight="600" fill="var(--accent-stroke)" text-anchor="middle" dominant-baseline="middle">Tome server</text>
  <path d="M729.91,123.42 C758.06,121.83,775.20,127.42,843.89,123.41 M732.98,125.35 C765.40,126.92,800.74,126.96,847.07,123.49 M845.67,124.23 C855.62,123.45,862.08,131.11,857.91,139.94 M844.43,122.73 C858.37,126.34,857.49,131.57,857.88,140.93 M862.73,140.52 C857.50,151.74,859.26,158.22,861.77,193.02 M859.11,136.97 C858.92,155.54,859.45,172.72,859.16,191.26 M859.67,190.30 C858.93,201.85,855.46,207.16,845.00,207.46 M860.13,188.97 C860.12,199.47,851.43,203.66,842.55,201.21 M842.92,206.08 C808.28,203.62,770.02,205.03,736.23,204.75 M844.34,205.63 C813.32,206.67,782.13,204.63,734.35,205.32 M733.11,204.30 C725.19,206.42,721.75,201.39,717.44,189.43 M734.28,202.53 C721.53,206.66,719.80,199.16,722.11,190.04 M721.03,192.02 C722.97,174.71,721.78,165.21,717.20,138.82 M719.24,188.72 C719.42,171.98,717.65,154.07,718.40,138.31 M719.11,138.23 C717.96,130.62,722.17,122.70,733.67,121.49 M718.25,139.72 C719.86,130.55,722.44,123.00,733.95,125.60 M733.11,124.23 C733.11,124.23,733.11,124.23,733.11,124.23 M733.11,124.23 C733.11,124.23,733.11,124.23,733.11,124.23" fill="none" stroke="currentColor" stroke-width="1.6" stroke-linecap="round" stroke-linejoin="round" />
  <text x="790" y="154.1" font-family="var(--diagram-font, 'Caveat', 'Comic Sans MS', cursive)" font-size="19" font-weight="600" fill="currentColor" text-anchor="middle" dominant-baseline="middle">Your</text>
  <text x="790" y="175.9" font-family="var(--diagram-font, 'Caveat', 'Comic Sans MS', cursive)" font-size="19" font-weight="600" fill="currentColor" text-anchor="middle" dominant-baseline="middle">dashboard</text>
  <path d="M268.86,68.44 C277.72,73.97,302.43,93.24,319.36,104.94 C336.30,116.63,362.08,133.14,370.47,138.59 M266.56,71.94 C275.35,76.77,300.69,90.38,317.82,101.90 C334.95,113.42,360.67,134.84,369.35,141.06" fill="none" stroke="currentColor" stroke-width="1.6" stroke-linecap="round" stroke-linejoin="round" />
  <path d="M367.55,135.91 L361.98,136.98 L360.67,127.38" fill="currentColor" stroke="none" />
  <path d="M368.32,138.55 C369.03,138.21,366.09,137.01,359.22,135.80 M370.34,137.97 C366.86,136.70,364.82,136.05,359.62,135.43 M359.94,135.18 C360.68,134.44,363.55,132.15,364.40,130.79 M359.92,135.15 C360.13,134.22,361.90,133.21,364.04,129.48 M362.13,129.40 C367.10,132.48,368.33,135.79,368.80,137.94 M363.89,130.65 C365.55,131.88,367.87,134.65,369.78,139.09" fill="none" stroke="currentColor" stroke-width="1.6" stroke-linecap="round" stroke-linejoin="round" />
  <path d="M268.63,73.64 L277.40,70.10 L274.49,81.71" fill="currentColor" stroke="none" />
  <path d="M269.05,69.87 C269.54,70.81,273.90,71.61,279.07,71.90 M268.94,71.24 C271.66,71.89,274.63,72.12,278.81,72.69 M278.50,72.79 C276.22,75.92,276.55,78.65,275.13,78.30 M278.36,72.74 C277.62,74.90,276.75,76.42,274.77,79.35 M275.78,80.04 C273.01,77.62,271.02,74.77,266.97,71.50 M275.00,78.80 C272.29,77.29,271.77,75.05,268.03,70.48" fill="none" stroke="currentColor" stroke-width="1.6" stroke-linecap="round" stroke-linejoin="round" />
  <text x="331.3" y="85.3" font-family="var(--diagram-font, 'Caveat', 'Comic Sans MS', cursive)" font-size="17" fill="currentColor" text-anchor="middle" dominant-baseline="middle" opacity="0.78">sessions + position</text>
  <path d="M267.49,250.87 C276.12,245.22,301.35,227.28,318.30,217.60 C335.25,207.93,360.66,197.15,369.20,192.82 M270.78,249.50 C279.24,243.97,300.03,229.73,316.17,219.74 C332.31,209.76,358.64,193.92,367.61,189.61" fill="none" stroke="currentColor" stroke-width="1.6" stroke-linecap="round" stroke-linejoin="round" />
  <path d="M369.95,194.14 L361.34,195.95 L358.87,195.56" fill="currentColor" stroke="none" />
  <path d="M370.36,190.37 C367.45,192.20,368.33,194.07,363.00,197.76 M370.25,191.74 C368.28,194.00,366.57,195.67,362.74,198.55 M362.44,198.65 C360.13,197.15,360.63,195.26,359.51,192.15 M362.29,198.59 C361.71,197.09,360.98,194.95,359.16,193.20 M360.17,193.88 C363.33,193.51,367.18,192.95,368.28,192.00 M359.39,192.64 C361.22,193.09,365.27,192.65,369.34,190.98" fill="none" stroke="currentColor" stroke-width="1.6" stroke-linecap="round" stroke-linejoin="round" />
  <path d="M271.73,252.18 L277.09,240.80 L281.42,249.27" fill="currentColor" stroke="none" />
  <path d="M268.40,248.41 C270.37,247.17,270.41,246.75,276.78,242.59 M267.86,250.03 C270.55,248.18,272.39,244.84,275.85,241.14 M274.93,241.59 C276.69,243.15,277.38,243.21,278.97,247.68 M275.77,241.51 C276.34,244.03,277.46,246.49,278.62,247.73 M279.16,246.90 C275.00,248.27,272.61,248.67,267.14,248.88 M279.24,248.26 C276.44,248.42,274.18,248.78,268.30,250.78" fill="none" stroke="currentColor" stroke-width="1.6" stroke-linecap="round" stroke-linejoin="round" />
  <text x="308.1" y="199.7" font-family="var(--diagram-font, 'Caveat', 'Comic Sans MS', cursive)" font-size="17" fill="currentColor" text-anchor="middle" dominant-baseline="middle" opacity="0.78">sessions + position</text>
  <path d="M611.40,164.70 C619.60,164.94,641.26,168.49,657.14,168.38 C673.02,168.28,698.17,164.32,706.68,164.07 M609.56,162.69 C618.58,163.18,643.99,164.45,660.91,164.99 C677.84,165.52,703.13,166.18,711.11,165.90" fill="none" stroke="currentColor" stroke-width="1.6" stroke-linecap="round" stroke-linejoin="round" />
  <path d="M711.09,167.21 L700.00,168.13 L700.26,163.65" fill="currentColor" stroke="none" />
  <path d="M707.76,163.45 C706.66,164.88,703.40,166.92,699.69,169.91 M707.22,165.07 C705.30,166.77,702.35,167.01,698.76,168.47 M697.84,168.91 C698.93,167.79,698.80,165.24,697.81,162.06 M698.68,168.83 C697.92,166.56,697.52,164.19,697.46,162.11 M698.00,161.29 C701.24,162.60,706.24,163.23,706.51,163.91 M698.08,162.65 C700.34,162.71,703.12,163.23,707.66,165.82" fill="none" stroke="currentColor" stroke-width="1.6" stroke-linecap="round" stroke-linejoin="round" />
  <text x="659.1" y="145.7" font-family="var(--diagram-font, 'Caveat', 'Comic Sans MS', cursive)" font-size="17" fill="currentColor" text-anchor="middle" dominant-baseline="middle" opacity="0.78">stats, series, library</text>
</svg>