<svg
  xmlns="http://www.w3.org/2000/svg"
  viewBox="-16 -16 912 532"
  width="100%"
  preserveAspectRatio="xMidYMid meet"
  style="color: currentColor; --accent-stroke: var(--diagram-accent, #863bff); --accent-fill: var(--diagram-accent-fill, rgba(134, 59, 255, 0.12));"
  role="img">
  <path d="M364.32,32.51 C398.58,28.46,432.46,29.17,535.31,30.67 M366.24,29.84 C414.92,29.79,464.41,31.31,536.71,31.28 M536.06,30.65 C544.22,28.05,548.11,35.39,549.83,46.10 M534.05,29.55 C544.78,30.22,550.26,34.82,550.65,42.66 M550.49,46.39 C547.66,53.99,549.48,61.70,547.88,77.89 M548.59,43.16 C549.15,58.21,549.94,70.25,549.92,76.18 M550.06,76.44 C548.52,84.03,547.29,89.20,535.70,92.59 M549.70,76.87 C553.03,84.40,548.42,90.99,533.39,86.81 M533.15,88.03 C503.02,90.39,465.69,89.55,367.68,91.84 M536.83,91.07 C472.26,89.49,412.11,90.98,365.52,91.99 M364.77,90.44 C353.97,90.62,351.94,88.76,349.49,73.49 M364.22,92.47 C354.34,87.23,350.39,89.07,348.83,74.19 M349.77,77.92 C348.10,71.27,353.83,60.17,349.98,46.59 M350.92,76.74 C351.82,69.49,350.16,62.28,349.45,43.48 M350.77,44.65 C352.77,34.97,357.58,28.98,363.83,28.24 M353.81,46.19 C351.13,32.14,358.73,32.23,361.26,34.33 M364.77,30.65 C364.77,30.65,364.77,30.65,364.77,30.65 M364.77,30.65 C364.77,30.65,364.77,30.65,364.77,30.65" fill="none" stroke="currentColor" stroke-width="1.6" stroke-linecap="round" stroke-linejoin="round" />
  <text x="450" y="60.0" font-family="var(--diagram-font, 'Caveat', 'Comic Sans MS', cursive)" font-size="21" font-weight="600" fill="currentColor" text-anchor="middle" dominant-baseline="middle">Logged-in user</text>
  <path d="M449.36,132.88 L520.47,175.53 L447.47,214.01 L375.89,177.45" fill="none" stroke="none" />
  <path d="M449.03,133.20 C467.10,139.65,480.04,150.58,521.05,172.69 M450.13,134.22 C471.64,145.74,492.34,159.45,521.19,175.49 M522.93,173.70 C497.25,192.51,475.13,203.37,446.06,218.21 M520.65,174.35 C493.35,190.93,469.95,206.03,449.02,215.84 M449.96,215.18 C432.61,208.40,415.78,198.91,381.28,176.37 M448.67,216.18 C424.63,204.70,400.28,189.86,378.61,173.42 M379.73,173.73 C400.33,159.63,426.14,147.85,452.54,131.86 M379.42,176.20 C402.02,163.11,425.40,148.61,451.17,133.61" fill="none" stroke="currentColor" stroke-width="1.6" stroke-linecap="round" stroke-linejoin="round" />
  <text x="450" y="175.0" font-family="var(--diagram-font, 'Caveat', 'Comic Sans MS', cursive)" font-size="22" font-weight="600" fill="currentColor" text-anchor="middle" dominant-baseline="middle">Role?</text>
  <path d="M48.93,333.71 C108.15,331.66,164.38,327.50,241.51,331.27 C246.08,327.30,250.28,333.76,250.64,340.20 C253.41,364.04,248.27,372.93,250.30,429.92 C248.42,430.11,250.88,440.97,239.79,436.06 C161.83,439.62,93.28,444.25,49.57,441.13 C38.41,440.97,33.97,438.89,29.44,430.05 C25.59,411.53,30.89,384.97,31.90,347.23 C33.81,337.16,35.31,327.28,40.66,332.74 C44.79,329.57,44.79,329.57,44.79,329.57" fill="var(--accent-fill)" stroke="none" />
  <path d="M47.09,328.10 C81.72,329.47,118.98,327.32,239.89,330.84 M44.18,329.61 C107.33,324.92,173.07,327.81,235.57,329.41 M236.79,329.57 C246.41,331.88,249.64,331.42,251.67,342.06 M238.71,327.80 C249.66,326.81,253.31,336.74,252.70,346.69 M252.11,340.61 C248.45,364.94,252.36,386.89,250.28,426.95 M252.20,342.58 C252.10,368.41,250.22,391.49,249.89,425.67 M250.79,425.57 C248.69,434.84,246.71,438.27,236.78,440.79 M250.03,426.26 C253.30,438.23,248.11,437.40,233.14,441.27 M235.77,439.69 C188.18,444.35,142.02,440.97,47.69,442.40 M235.76,440.15 C191.18,441.65,146.42,440.57,45.95,438.29 M44.79,439.57 C35.56,440.50,31.88,433.10,32.48,427.52 M47.61,441.80 C35.62,441.42,33.14,437.60,32.96,423.81 M33.27,424.09 C28.35,392.49,31.16,363.03,31.10,340.56 M29.81,424.49 C31.06,407.48,32.35,386.69,31.42,344.93 M30.79,343.57 C27.60,335.50,34.17,329.96,42.56,332.71 M28.68,343.04 C30.73,334.97,33.82,331.50,44.03,326.60 M44.79,329.57 C44.79,329.57,44.79,329.57,44.79,329.57 M44.79,329.57 C44.79,329.57,44.79,329.57,44.79,329.57" fill="none" stroke="var(--accent-stroke)" stroke-width="1.6" stroke-linecap="round" stroke-linejoin="round" />
  <text x="140" y="385.0" font-family="var(--diagram-font, 'Caveat', 'Comic Sans MS', cursive)" font-size="19" font-weight="600" fill="var(--accent-stroke)" text-anchor="middle" dominant-baseline="middle">Sees every book</text>
  <path d="M343.13,326.34 C424.29,327.59,511.22,324.66,556.13,326.07 C563.33,325.99,568.43,337.91,575.50,343.04 C569.92,375.85,571.92,420.06,570.99,442.94 C570.16,454.00,568.59,460.63,560.35,455.99 C497.01,457.48,443.10,458.27,346.41,457.54 C331.74,464.98,327.30,456.98,326.84,443.44 C333.57,412.32,330.09,374.84,335.51,342.95 C328.04,336.68,336.18,331.58,345.44,326.82 C345.39,330.20,345.39,330.20,345.39,330.20" fill="var(--accent-fill)" stroke="none" />
  <path d="M345.80,327.45 C388.87,331.55,429.95,331.21,556.19,329.05 M345.35,329.20 C421.26,330.40,494.59,329.33,556.91,329.71 M557.39,330.20 C564.54,331.77,570.64,337.01,572.83,344.42 M558.08,328.09 C564.98,329.96,571.39,331.52,573.96,346.21 M573.16,342.09 C572.60,368.47,571.14,384.80,568.51,447.54 M571.05,343.47 C568.48,369.88,570.06,393.67,571.71,444.89 M571.39,446.20 C572.21,453.12,566.66,462.08,557.57,457.76 M570.44,443.83 C569.99,453.85,564.52,456.67,556.94,460.90 M560.15,461.43 C497.84,460.32,443.41,461.87,347.94,457.69 M558.52,460.70 C500.13,460.67,442.36,461.39,345.18,459.24 M345.39,460.20 C336.95,458.32,332.44,457.75,331.36,447.41 M343.50,462.54 C336.85,460.91,327.74,457.93,328.25,448.36 M332.41,446.45 C331.69,413.33,329.85,379.26,332.25,341.92 M331.45,446.04 C329.33,412.83,328.90,375.51,331.40,343.62 M331.39,344.20 C328.80,336.94,336.25,331.62,345.72,329.72 M329.90,342.63 C331.12,333.88,339.32,328.63,342.33,331.28 M345.39,330.20 C345.39,330.20,345.39,330.20,345.39,330.20 M345.39,330.20 C345.39,330.20,345.39,330.20,345.39,330.20" fill="none" stroke="var(--accent-stroke)" stroke-width="1.6" stroke-linecap="round" stroke-linejoin="round" />
  <text x="450" y="360.0" font-family="var(--diagram-font, 'Caveat', 'Comic Sans MS', cursive)" font-size="16" font-weight="600" fill="var(--accent-stroke)" text-anchor="middle" dominant-baseline="middle">Books from admins</text>
  <text x="450" y="385.0" font-family="var(--diagram-font, 'Caveat', 'Comic Sans MS', cursive)" font-size="16" font-weight="600" fill="var(--accent-stroke)" text-anchor="middle" dominant-baseline="middle">+ books they uploaded</text>
  <text x="450" y="410.0" font-family="var(--diagram-font, 'Caveat', 'Comic Sans MS', cursive)" font-size="16" font-weight="600" fill="var(--accent-stroke)" text-anchor="middle" dominant-baseline="middle">+ books in assigned</text>
  <text x="450" y="432.0" font-family="var(--diagram-font, 'Caveat', 'Comic Sans MS', cursive)" font-size="16" font-weight="600" fill="var(--accent-stroke)" text-anchor="middle" dominant-baseline="middle">libraries</text>
  <path d="M663.38,327.39 C712.16,323.18,767.43,330.28,857.07,329.21 C867.25,334.14,873.25,332.33,867.83,345.74 C867.97,366.54,867.52,396.29,868.74,425.42 C868.96,437.76,863.36,440.16,857.99,445.39 C780.72,446.07,714.66,443.26,660.60,442.69 C651.73,439.26,647.30,434.92,650.92,426.28 C648.77,402.69,655.72,383.99,646.60,348.14 C648.94,336.05,654.12,326.15,667.29,330.37 C663.07,330.70,663.07,330.70,663.07,330.70" fill="var(--accent-fill)" stroke="none" />
  <path d="M661.70,332.32 C698.97,333.81,741.87,335.19,855.63,333.23 M663.58,331.58 C735.21,332.85,808.02,330.72,855.19,329.75 M855.07,330.70 C866.14,331.53,868.72,336.07,871.07,346.64 M854.53,328.26 C864.74,332.97,866.54,333.53,872.30,345.58 M871.28,343.44 C867.54,373.56,867.12,398.79,870.22,428.01 M870.17,344.22 C868.86,377.91,870.72,409.12,870.60,427.17 M869.07,426.70 C866.40,437.67,863.68,439.35,855.42,441.00 M867.92,427.66 C871.11,436.71,865.35,443.17,857.81,440.39 M855.94,443.36 C795.08,443.68,737.88,444.16,665.95,438.57 M855.45,441.25 C796.81,442.60,739.79,442.13,664.63,439.80 M663.07,440.70 C655.41,442.40,650.07,435.86,647.31,427.16 M662.85,443.14 C655.15,440.27,646.78,438.14,647.98,425.43 M648.62,428.67 C646.13,401.01,646.03,375.69,650.48,343.15 M650.17,427.45 C648.48,404.83,649.51,384.20,648.46,345.38 M649.07,344.70 C647.08,338.25,655.41,333.16,665.94,332.99 M648.20,342.09 C648.59,332.66,654.54,332.98,665.06,328.46 M663.07,330.70 C663.07,330.70,663.07,330.70,663.07,330.70 M663.07,330.70 C663.07,330.70,663.07,330.70,663.07,330.70" fill="none" stroke="var(--accent-stroke)" stroke-width="1.6" stroke-linecap="round" stroke-linejoin="round" />
  <text x="760" y="372.0" font-family="var(--diagram-font, 'Caveat', 'Comic Sans MS', cursive)" font-size="16" font-weight="600" fill="var(--accent-stroke)" text-anchor="middle" dominant-baseline="middle">Books from admins</text>
  <text x="760" y="398.0" font-family="var(--diagram-font, 'Caveat', 'Comic Sans MS', cursive)" font-size="16" font-weight="600" fill="var(--accent-stroke)" text-anchor="middle" dominant-baseline="middle">+ books in public</text>
  <text x="760" y="422.0" font-family="var(--diagram-font, 'Caveat', 'Comic Sans MS', cursive)" font-size="16" font-weight="600" fill="var(--accent-stroke)" text-anchor="middle" dominant-baseline="middle">libraries</text>
  <path d="M450.76,100.31 C451.37,102.83,451.85,109.71,451.54,113.82 C451.23,117.92,449.42,123.48,448.89,124.94 M448.59,98.62 C450.07,100.59,455.94,106.47,455.67,110.34 C455.40,114.20,448.23,119.49,446.94,121.82" fill="none" stroke="currentColor" stroke-width="1.6" stroke-linecap="round" stroke-linejoin="round" />
  <path d="M449.85,123.86 L450.00,112.49 L454.28,115.82" fill="currentColor" stroke="none" />
  <path d="M450.25,121.98 C450.43,120.00,451.45,117.46,449.08,112.36 M450.37,123.12 C450.49,119.50,449.02,117.35,449.93,112.35 M450.40,113.14 C450.68,112.42,453.70,113.43,456.61,113.79 M449.51,112.00 C452.32,112.89,453.95,113.69,456.61,114.08 M456.33,113.51 C452.98,117.67,452.86,119.77,450.02,122.48 M456.53,113.72 C454.58,117.42,452.47,119.80,449.39,123.47" fill="none" stroke="currentColor" stroke-width="1.6" stroke-linecap="round" stroke-linejoin="round" />
  
  <path d="M385.38,204.02 C368.95,213.91,320.94,243.36,285.62,263.25 C250.30,283.13,192.04,313.05,173.46,323.33 M388.78,201.69 C372.43,211.85,320.14,244.35,284.93,264.94 C249.72,285.53,196.04,315.93,177.52,325.25" fill="none" stroke="currentColor" stroke-width="1.6" stroke-linecap="round" stroke-linejoin="round" />
  <path d="M178.08,324.08 L179.74,318.36 L186.78,322.66" fill="currentColor" stroke="none" />
  <path d="M174.73,325.59 C175.39,320.99,177.75,319.93,183.23,314.82 M176.11,323.59 C177.83,321.12,180.23,319.15,181.73,315.97 M183.27,317.10 C182.51,317.09,185.07,319.96,186.02,322.45 M182.25,315.93 C183.43,317.51,183.93,319.57,186.03,322.86 M185.29,323.04 C183.59,321.42,179.47,324.01,175.33,324.93 M186.33,322.47 C182.33,322.39,179.80,323.90,174.78,323.75" fill="none" stroke="currentColor" stroke-width="1.6" stroke-linecap="round" stroke-linejoin="round" />
  <text x="272.9" y="246.0" font-family="var(--diagram-font, 'Caveat', 'Comic Sans MS', cursive)" font-size="17" fill="currentColor" text-anchor="middle" dominant-baseline="middle" opacity="0.78">admin</text>
  <path d="M451.62,222.90 C452.59,230.64,453.77,254.91,453.72,270.89 C453.68,286.86,452.15,311.25,451.35,318.75 M449.90,226.40 C450.85,234.55,452.32,258.76,452.45,273.53 C452.59,288.30,451.32,307.80,450.72,315.00" fill="none" stroke="currentColor" stroke-width="1.6" stroke-linecap="round" stroke-linejoin="round" />
  <path d="M449.01,317.11 L447.31,305.56 L451.35,307.33" fill="currentColor" stroke="none" />
  <path d="M448.31,318.61 C449.36,317.08,449.51,313.11,445.44,308.41 M449.27,318.57 C448.82,313.81,447.62,310.38,446.66,307.31 M447.59,308.80 C449.95,308.73,451.82,308.37,453.90,308.93 M447.56,307.60 C448.87,307.73,451.30,307.81,453.92,308.35 M452.70,307.01 C453.39,311.91,452.65,317.18,449.74,316.79 M454.60,309.04 C453.18,311.46,451.74,313.28,449.28,318.54" fill="none" stroke="currentColor" stroke-width="1.6" stroke-linecap="round" stroke-linejoin="round" />
  <text x="475.0" y="271.0" font-family="var(--diagram-font, 'Caveat', 'Comic Sans MS', cursive)" font-size="17" fill="currentColor" text-anchor="middle" dominant-baseline="middle" opacity="0.78">member</text>
  <path d="M513.69,205.75 C531.47,215.75,582.28,245.13,618.33,264.55 C654.37,283.96,711.57,312.44,729.97,322.24 M511.07,204.39 C528.72,213.83,580.17,241.80,616.47,261.65 C652.77,281.51,710.15,312.99,728.86,323.53" fill="none" stroke="currentColor" stroke-width="1.6" stroke-linecap="round" stroke-linejoin="round" />
  <path d="M731.29,322.42 L722.23,322.23 L722.42,314.19" fill="currentColor" stroke="none" />
  <path d="M730.23,323.93 C728.71,324.21,723.75,322.86,718.38,321.66 M729.06,324.14 C724.92,322.88,722.28,323.54,718.93,321.72 M719.25,321.32 C720.39,320.89,721.62,319.07,721.88,315.37 M719.08,322.33 C720.71,320.13,721.71,318.27,721.90,316.03 M723.61,316.58 C723.79,319.25,723.78,318.49,729.10,324.34 M722.97,316.12 C723.71,318.19,726.01,320.76,728.73,323.92" fill="none" stroke="currentColor" stroke-width="1.6" stroke-linecap="round" stroke-linejoin="round" />
  <text x="629.3" y="243.7" font-family="var(--diagram-font, 'Caveat', 'Comic Sans MS', cursive)" font-size="17" fill="currentColor" text-anchor="middle" dominant-baseline="middle" opacity="0.78">guest</text>
</svg>